<svg width="12" height="20" viewBox="0 0 12 20" fill="none" xmlns="http://www.w3.org/2000/svg">
<path d="M3.55313 9.99997L10.9031 17.35C11.1531 17.6 11.2741 17.8916 11.2661 18.225C11.2581 18.5583 11.1288 18.85 10.8781 19.1C10.6275 19.35 10.3358 19.475 10.0031 19.475C9.67046 19.475 9.37879 19.35 9.12813 19.1L1.42813 11.425C1.22813 11.225 1.07813 11 0.978125 10.75C0.878125 10.5 0.828125 10.25 0.828125 9.99997C0.828125 9.74997 0.878125 9.49997 0.978125 9.24997C1.07813 8.99997 1.22813 8.77497 1.42813 8.57497L9.12813 0.874969C9.37813 0.624969 9.67413 0.503969 10.0161 0.511969C10.3581 0.519969 10.6538 0.649302 10.9031 0.899969C11.1525 1.15064 11.2775 1.4423 11.2781 1.77497C11.2788 2.10764 11.1538 2.3993 10.9031 2.64997L3.55313 9.99997Z" fill="white"/>
</svg>
