<svg width="14" height="14" viewBox="0 0 14 14" fill="none" xmlns="http://www.w3.org/2000/svg">
<path d="M7.00261 0.333374C5.68407 0.333374 4.39513 0.724367 3.29881 1.45691C2.20248 2.18945 1.34799 3.23064 0.84341 4.44882C0.338826 5.66699 0.206804 7.00744 0.464039 8.30064C0.721273 9.59385 1.35621 10.7817 2.28856 11.7141C3.22091 12.6464 4.4088 13.2814 5.70201 13.5386C6.99521 13.7958 8.33566 13.6638 9.55383 13.1592C10.772 12.6547 11.8132 11.8002 12.5457 10.7038C13.2783 9.60751 13.6693 8.31858 13.6693 7.00004C13.6693 6.12456 13.4968 5.25766 13.1618 4.44882C12.8268 3.63998 12.3357 2.90505 11.7167 2.286C11.0976 1.66694 10.3627 1.17588 9.55383 0.840844C8.74499 0.505812 7.87809 0.333374 7.00261 0.333374ZM5.66927 10V4.00004L9.66927 7.00004L5.66927 10Z" fill="url(#paint0_linear_839_2199)"/>
<defs>
<linearGradient id="paint0_linear_839_2199" x1="7.00261" y1="0.333374" x2="7.00261" y2="13.6667" gradientUnits="userSpaceOnUse">
<stop stop-color="#FFFCFB"/>
<stop offset="1" stop-color="#FFAF96"/>
</linearGradient>
</defs>
</svg>
