<svg width="20" height="20" viewBox="0 0 20 20" fill="none" xmlns="http://www.w3.org/2000/svg">
<g clip-path="url(#clip0_1205_6380)">
<path fill-rule="evenodd" clip-rule="evenodd" d="M13.6449 7.5075C13.6449 8.34723 13.3113 9.15256 12.7175 9.74633C12.1237 10.3401 11.3184 10.6737 10.4787 10.6737C9.63896 10.6737 8.83363 10.3401 8.23986 9.74633C7.64608 9.15256 7.3125 8.34723 7.3125 7.5075C7.3125 6.66777 7.64608 5.86244 8.23986 5.26866C8.83363 4.67489 9.63896 4.34131 10.4787 4.34131C11.3184 4.34131 12.1237 4.67489 12.7175 5.26866C13.3113 5.86244 13.6449 6.66777 13.6449 7.5075ZM12.0618 7.5075C12.0618 7.92736 11.895 8.33003 11.5981 8.62692C11.3012 8.9238 10.8986 9.09059 10.4787 9.09059C10.0588 9.09059 9.65616 8.9238 9.35927 8.62692C9.06239 8.33003 8.8956 7.92736 8.8956 7.5075C8.8956 7.08764 9.06239 6.68497 9.35927 6.38808C9.65616 6.09119 10.0588 5.9244 10.4787 5.9244C10.8986 5.9244 11.3012 6.09119 11.5981 6.38808C11.895 6.68497 12.0618 7.08764 12.0618 7.5075Z" fill="#505050"/>
<path fill-rule="evenodd" clip-rule="evenodd" d="M10.4818 1.17432C5.6724 1.17432 1.77344 5.07327 1.77344 9.88265C1.77344 14.692 5.6724 18.591 10.4818 18.591C15.2911 18.591 19.1901 14.692 19.1901 9.88265C19.1901 5.07327 15.2911 1.17432 10.4818 1.17432ZM3.35677 9.88265C3.35677 11.5372 3.92123 13.0604 4.86727 14.2701C5.53183 13.3977 6.38898 12.6908 7.37182 12.2044C8.35466 11.718 9.43661 11.4653 10.5332 11.466C11.6157 11.4647 12.6842 11.7107 13.6572 12.1851C14.6303 12.6595 15.4821 13.3499 16.1477 14.2036C16.8337 13.3039 17.2955 12.2539 17.4951 11.1403C17.6946 10.0267 17.6261 8.88161 17.2952 7.79976C16.9644 6.71791 16.3807 5.7304 15.5924 4.91893C14.8041 4.10746 13.8339 3.49537 12.7621 3.1333C11.6903 2.77123 10.5476 2.66959 9.42874 2.83679C8.30985 3.004 7.24686 3.43523 6.32771 4.09482C5.40857 4.7544 4.6597 5.62338 4.14308 6.62985C3.62645 7.63631 3.35691 8.75133 3.35677 9.88265ZM10.4818 17.0076C8.84611 17.0103 7.2598 16.4476 5.99144 15.4148C6.50191 14.6838 7.18147 14.087 7.97225 13.6751C8.76303 13.2632 9.64162 13.0485 10.5332 13.0493C11.4137 13.0485 12.2816 13.2579 13.065 13.6599C13.8483 14.062 14.5244 14.6452 15.037 15.361C13.7589 16.4274 12.1464 17.0103 10.4818 17.0076Z" fill="#505050"/>
</g>
<defs>
<clipPath id="clip0_1205_6380">
<rect width="19" height="19" fill="white" transform="translate(0.984375 0.382324)"/>
</clipPath>
</defs>
</svg>
