<svg width="24" height="24" viewBox="0 0 24 24" fill="none" xmlns="http://www.w3.org/2000/svg">
<path d="M3.002 10C3.014 7.825 3.11 6.647 3.879 5.879C4.757 5 6.172 5 9 5H12C14.828 5 16.243 5 17.121 5.879C18 6.757 18 8.172 18 11V16C18 18.828 18 20.243 17.121 21.121C16.243 22 14.828 22 12 22H9C6.172 22 4.757 22 3.879 21.121C3 20.243 3 18.828 3 16V15" stroke="#EB6619" stroke-width="1.5" stroke-linecap="round"/>
<path d="M21 10V16C21 16.7956 20.6839 17.5587 20.1213 18.1213C19.5587 18.6839 18.7956 19 18 19M6 5C6 4.20435 6.31607 3.44129 6.87868 2.87868C7.44129 2.31607 8.20435 2 9 2H13C16.771 2 18.657 2 19.828 3.172C20.482 3.825 20.771 4.7 20.898 6" stroke="#EB6619" stroke-width="1.5" stroke-linecap="round"/>
</svg>
