<svg width="20" height="20" viewBox="0 0 20 20" fill="none" xmlns="http://www.w3.org/2000/svg">
<path fill-rule="evenodd" clip-rule="evenodd" d="M1.875 3C1.875 2.37833 2.37833 1.875 3 1.875H17C17.6217 1.875 18.125 2.37833 18.125 3V17C18.125 17.1477 18.0959 17.294 18.0394 17.4305C17.9828 17.567 17.9 17.691 17.7955 17.7955C17.691 17.9 17.567 17.9828 17.4305 18.0394C17.294 18.0959 17.1477 18.125 17 18.125H3C2.85226 18.125 2.70597 18.0959 2.56948 18.0394C2.43299 17.9828 2.30897 17.9 2.2045 17.7955C2.10004 17.691 2.01717 17.567 1.96064 17.4305C1.9041 17.294 1.875 17.1477 1.875 17V3ZM4.375 15C4.375 14.8342 4.44085 14.6753 4.55806 14.5581C4.67527 14.4408 4.83424 14.375 5 14.375H15C15.1658 14.375 15.3247 14.4408 15.4419 14.5581C15.5592 14.6753 15.625 14.8342 15.625 15C15.625 15.1658 15.5592 15.3247 15.4419 15.4419C15.3247 15.5592 15.1658 15.625 15 15.625H5C4.83424 15.625 4.67527 15.5592 4.55806 15.4419C4.44085 15.3247 4.375 15.1658 4.375 15ZM13.3583 9.19167L10.4417 12.1083C10.3245 12.2254 10.1656 12.2911 10 12.2911C9.83437 12.2911 9.67552 12.2254 9.55833 12.1083L6.64167 9.19167C6.58026 9.13445 6.53101 9.06545 6.49685 8.98878C6.46269 8.91212 6.44432 8.82935 6.44284 8.74543C6.44136 8.66152 6.4568 8.57816 6.48823 8.50034C6.51966 8.42251 6.56645 8.35182 6.6258 8.29247C6.68515 8.23312 6.75584 8.18633 6.83367 8.1549C6.91149 8.12346 6.99485 8.10803 7.07877 8.10951C7.16269 8.11099 7.24545 8.12936 7.32211 8.16352C7.39878 8.19768 7.46778 8.24693 7.525 8.30833L9.375 10.1583V5C9.375 4.83424 9.44085 4.67527 9.55806 4.55806C9.67527 4.44085 9.83424 4.375 10 4.375C10.1658 4.375 10.3247 4.44085 10.4419 4.55806C10.5592 4.67527 10.625 4.83424 10.625 5V10.1583L12.475 8.30833C12.5322 8.24693 12.6012 8.19768 12.6779 8.16352C12.7546 8.12936 12.8373 8.11099 12.9212 8.10951C13.0051 8.10803 13.0885 8.12346 13.1663 8.1549C13.2442 8.18633 13.3148 8.23312 13.3742 8.29247C13.4335 8.35182 13.4803 8.42251 13.5118 8.50034C13.5432 8.57816 13.5586 8.66152 13.5572 8.74543C13.5557 8.82935 13.5373 8.91212 13.5032 8.98878C13.469 9.06545 13.4197 9.13445 13.3583 9.19167Z" fill="#FF6835"/>
</svg>
