<svg width="18" height="18" viewBox="0 0 18 18" fill="none" xmlns="http://www.w3.org/2000/svg">
<path fill-rule="evenodd" clip-rule="evenodd" d="M0.875 2C0.875 1.37833 1.37833 0.875 2 0.875H16C16.6217 0.875 17.125 1.37833 17.125 2V16C17.125 16.1477 17.0959 16.294 17.0394 16.4305C16.9828 16.567 16.9 16.691 16.7955 16.7955C16.691 16.9 16.567 16.9828 16.4305 17.0394C16.294 17.0959 16.1477 17.125 16 17.125H2C1.85226 17.125 1.70597 17.0959 1.56948 17.0394C1.43299 16.9828 1.30897 16.9 1.2045 16.7955C1.10004 16.691 1.01717 16.567 0.960636 16.4305C0.904099 16.294 0.875 16.1477 0.875 16V2ZM3.375 14C3.375 13.8342 3.44085 13.6753 3.55806 13.5581C3.67527 13.4408 3.83424 13.375 4 13.375H14C14.1658 13.375 14.3247 13.4408 14.4419 13.5581C14.5592 13.6753 14.625 13.8342 14.625 14C14.625 14.1658 14.5592 14.3247 14.4419 14.4419C14.3247 14.5592 14.1658 14.625 14 14.625H4C3.83424 14.625 3.67527 14.5592 3.55806 14.4419C3.44085 14.3247 3.375 14.1658 3.375 14ZM12.3583 8.19167L9.44167 11.1083C9.32448 11.2254 9.16563 11.2911 9 11.2911C8.83437 11.2911 8.67552 11.2254 8.55833 11.1083L5.64167 8.19167C5.58026 8.13445 5.53101 8.06545 5.49685 7.98878C5.46269 7.91212 5.44432 7.82935 5.44284 7.74543C5.44136 7.66152 5.4568 7.57816 5.48823 7.50034C5.51967 7.42251 5.56645 7.35182 5.6258 7.29247C5.68515 7.23312 5.75585 7.18633 5.83367 7.1549C5.91149 7.12346 5.99485 7.10803 6.07877 7.10951C6.16269 7.11099 6.24545 7.12936 6.32211 7.16352C6.39878 7.19768 6.46778 7.24693 6.525 7.30833L8.375 9.15833V4C8.375 3.83424 8.44085 3.67527 8.55806 3.55806C8.67527 3.44085 8.83424 3.375 9 3.375C9.16576 3.375 9.32473 3.44085 9.44194 3.55806C9.55915 3.67527 9.625 3.83424 9.625 4V9.15833L11.475 7.30833C11.5322 7.24693 11.6012 7.19768 11.6779 7.16352C11.7546 7.12936 11.8373 7.11099 11.9212 7.10951C12.0052 7.10803 12.0885 7.12346 12.1663 7.1549C12.2442 7.18633 12.3148 7.23312 12.3742 7.29247C12.4335 7.35182 12.4803 7.42251 12.5118 7.50034C12.5432 7.57816 12.5586 7.66152 12.5572 7.74543C12.5557 7.82935 12.5373 7.91212 12.5032 7.98878C12.469 8.06545 12.4197 8.13445 12.3583 8.19167Z" fill="white"/>
</svg>
