<svg width="240" height="240" viewBox="0 0 240 240" fill="none" xmlns="http://www.w3.org/2000/svg">
<path d="M35.0234 70.89L120.023 21.77L205.023 70.89L205.023 169.12L120.023 218.23L35.0234 169.12L35.0234 70.89ZM45.0234 76.62L45.0234 163.39L120.023 206.52L195.023 163.39L195.023 76.62L120.023 33.23L45.0234 76.62Z" fill="#C9C9C9" fill-opacity="0.32"/>
<path d="M56 83.023L120 46.0386L184 83.023L184 156.984L120 193.961L56 156.984L56 83.023Z" fill="#EB6619"/>
<path d="M120.003 124.433L129.186 133.617C129.766 134.197 130.505 134.487 131.403 134.487C132.3 134.487 133.039 134.197 133.619 133.617C134.2 133.036 134.49 132.297 134.49 131.4C134.49 130.503 134.2 129.764 133.619 129.183L124.436 120L133.619 110.817C134.2 110.236 134.49 109.497 134.49 108.6C134.49 107.703 134.2 106.964 133.619 106.383C133.039 105.803 132.3 105.512 131.403 105.512C130.505 105.512 129.766 105.803 129.186 106.383L120.003 115.567L110.819 106.383C110.239 105.803 109.5 105.512 108.603 105.512C107.705 105.512 106.966 105.803 106.386 106.383C105.805 106.964 105.515 107.703 105.515 108.6C105.515 109.497 105.805 110.236 106.386 110.817L115.569 120L106.386 129.183C105.805 129.764 105.515 130.503 105.515 131.4C105.515 132.297 105.805 133.036 106.386 133.617C106.966 134.197 107.705 134.487 108.603 134.487C109.5 134.487 110.239 134.197 110.819 133.617L120.003 124.433ZM120.003 151.667C115.622 151.667 111.505 150.835 107.653 149.171C103.8 147.508 100.448 145.252 97.5984 142.404C94.7484 139.556 92.4927 136.205 90.8313 132.35C89.1698 128.495 88.3381 124.378 88.3359 120C88.3338 115.621 89.1656 111.505 90.8313 107.65C92.4969 103.795 94.7527 100.444 97.5984 97.5958C100.444 94.7479 103.796 92.4921 107.653 90.8286C111.51 89.165 115.626 88.3333 120.003 88.3333C124.379 88.3333 128.496 89.165 132.353 90.8286C136.21 92.4921 139.561 94.7479 142.407 97.5958C145.253 100.444 147.509 103.795 149.177 107.65C150.845 111.505 151.676 115.621 151.669 120C151.663 124.378 150.831 128.495 149.174 132.35C147.517 136.205 145.261 139.556 142.407 142.404C139.553 145.252 136.201 147.509 132.353 149.174C128.504 150.84 124.387 151.671 120.003 151.667Z" fill="white"/>
</svg>
