<svg width="36" height="36" viewBox="0 0 36 36" fill="none" xmlns="http://www.w3.org/2000/svg">
<path d="M18 33C26.2843 33 33 26.2843 33 18C33 9.71573 26.2843 3 18 3C9.71573 3 3 9.71573 3 18C3 26.2843 9.71573 33 18 33Z" stroke="white" stroke-width="2" stroke-linecap="round" stroke-linejoin="round"/>
<path d="M13.6348 13.5C13.9874 12.4975 14.6835 11.6522 15.5997 11.1137C16.5159 10.5752 17.5931 10.3784 18.6405 10.5581C19.688 10.7377 20.638 11.2823 21.3224 12.0953C22.0068 12.9083 22.3813 13.9373 22.3798 15C22.3798 18 17.8798 19.5 17.8798 19.5" stroke="white" stroke-width="2" stroke-linecap="round" stroke-linejoin="round"/>
<path d="M18.0157 24L18.0157 25.5" stroke="white" stroke-width="2" stroke-linecap="round" stroke-linejoin="round"/>
</svg>
