<svg width="77" height="77" viewBox="0 0 77 77" fill="none" xmlns="http://www.w3.org/2000/svg">
<rect x="0.5" y="0.5" width="76" height="76" rx="38" fill="#1E1E1E"/>
<rect x="0.5" y="0.5" width="76" height="76" rx="38" stroke="#575757"/>
<path fill-rule="evenodd" clip-rule="evenodd" d="M39.125 27C35.644 27 32.3056 28.3828 29.8442 30.8442C27.3828 33.3056 26 36.644 26 40.125V48C26 48.8951 26.3556 49.7535 26.9885 50.3865C27.6214 51.0194 28.4799 51.375 29.375 51.375H30.875C31.7701 51.375 32.6286 51.0194 33.2615 50.3865C33.8944 49.7535 34.25 48.8951 34.25 48V42.75C34.25 41.8549 33.8944 40.9965 33.2615 40.3635C32.6286 39.7306 31.7701 39.375 30.875 39.375H29.375C28.983 39.377 28.613 39.4395 28.265 39.5625C28.4112 36.781 29.6192 34.1616 31.6398 32.2444C33.6604 30.3272 36.3396 29.2585 39.125 29.2585C41.9104 29.2585 44.5896 30.3272 46.6102 32.2444C48.6308 34.1616 49.8388 36.781 49.985 39.5625C49.6278 39.4396 49.2528 39.3763 48.875 39.375H47.375C46.4799 39.375 45.6215 39.7306 44.9885 40.3635C44.3556 40.9965 44 41.8549 44 42.75V48C44 48.8951 44.3556 49.7535 44.9885 50.3865C45.6215 51.0194 46.4799 51.375 47.375 51.375H48.875C49.7701 51.375 50.6285 51.0194 51.2615 50.3865C51.8944 49.7535 52.25 48.8951 52.25 48V40.125C52.25 38.4014 51.9105 36.6947 51.2509 35.1023C50.5913 33.5099 49.6245 32.063 48.4058 30.8442C47.187 29.6255 45.7401 28.6587 44.1477 27.9991C42.5553 27.3395 40.8486 27 39.125 27ZM50 42.729V48C50 48.2984 49.8815 48.5845 49.6705 48.7955C49.4595 49.0065 49.1734 49.125 48.875 49.125H47.375C47.0766 49.125 46.7905 49.0065 46.5795 48.7955C46.3685 48.5845 46.25 48.2984 46.25 48V42.75C46.25 42.4516 46.3685 42.1655 46.5795 41.9545C46.7905 41.7435 47.0766 41.625 47.375 41.625H48.875C49.1698 41.6249 49.4528 41.7406 49.6632 41.947C49.8735 42.1535 49.9945 42.4343 50 42.729ZM30.875 41.625C31.1734 41.625 31.4595 41.7435 31.6705 41.9545C31.8815 42.1655 32 42.4516 32 42.75V48C32 48.2984 31.8815 48.5845 31.6705 48.7955C31.4595 49.0065 31.1734 49.125 30.875 49.125H29.375C29.0766 49.125 28.7905 49.0065 28.5795 48.7955C28.3685 48.5845 28.25 48.2984 28.25 48V42.75C28.25 42.4516 28.3685 42.1655 28.5795 41.9545C28.7905 41.7435 29.0766 41.625 29.375 41.625H30.875Z" fill="white"/>
<path d="M39 31V39" stroke="#FF7040" stroke-linecap="round"/>
<path d="M42 33L42 37" stroke="#FF7040" stroke-linecap="round"/>
<path d="M36 33L36 37" stroke="#FF7040" stroke-linecap="round"/>
</svg>
