<svg width="11" height="11" viewBox="0 0 11 11" fill="none" xmlns="http://www.w3.org/2000/svg">
<path d="M8.717 8.07072C9.57039 7.21689 10.0498 6.05911 10.0498 4.85192C10.0498 3.64473 9.57039 2.48695 8.717 1.63312C8.29449 1.21057 7.79288 0.875373 7.24082 0.646685C6.68876 0.417998 6.09705 0.300293 5.4995 0.300293C4.90195 0.300293 4.31025 0.417998 3.75818 0.646685C3.20612 0.875373 2.70451 1.21057 2.282 1.63312C1.42861 2.48695 0.949219 3.64473 0.949219 4.85192C0.949219 6.05911 1.42861 7.21689 2.282 8.07072L3.27065 9.04507L4.5986 10.3353L4.68505 10.412C5.1888 10.8202 5.92655 10.7942 6.40105 10.3353L7.9838 8.79482L8.717 8.07072ZM5.4995 6.79997C4.98233 6.79997 4.48634 6.59453 4.12064 6.22883C3.75495 5.86313 3.5495 5.36714 3.5495 4.84997C3.5495 4.3328 3.75495 3.83681 4.12064 3.47111C4.48634 3.10542 4.98233 2.89997 5.4995 2.89997C6.01667 2.89997 6.51266 3.10542 6.87836 3.47111C7.24406 3.83681 7.4495 4.3328 7.4495 4.84997C7.4495 5.36714 7.24406 5.86313 6.87836 6.22883C6.51266 6.59453 6.01667 6.79997 5.4995 6.79997Z" fill="#8C8C8C"/>
</svg>
