<svg width="24" height="25" viewBox="0 0 24 25" fill="none" xmlns="http://www.w3.org/2000/svg">
<path d="M9 21.1318H6C5.65324 21.1465 5.30697 21.0928 4.98101 20.9735C4.65505 20.8543 4.3558 20.672 4.10038 20.437C3.84495 20.202 3.63837 19.919 3.49246 19.6041C3.34654 19.2892 3.26415 18.9486 3.25 18.6018V6.16178C3.26415 5.81499 3.34654 5.4744 3.49246 5.15949C3.63837 4.84458 3.84495 4.56153 4.10038 4.32654C4.3558 4.09155 4.65505 3.90923 4.98101 3.79001C5.30697 3.6708 5.65324 3.61703 6 3.63178H9C9.19891 3.63178 9.38968 3.7108 9.53033 3.85145C9.67098 3.9921 9.75 4.18287 9.75 4.38178C9.75 4.58069 9.67098 4.77146 9.53033 4.91211C9.38968 5.05276 9.19891 5.13178 9 5.13178H6C5.70307 5.10596 5.4076 5.19542 5.17487 5.38161C4.94213 5.5678 4.78999 5.83643 4.75 6.13178V18.6018C4.78999 18.8971 4.94213 19.1658 5.17487 19.3519C5.4076 19.5381 5.70307 19.6276 6 19.6018H9C9.19891 19.6018 9.38968 19.6808 9.53033 19.8215C9.67098 19.9621 9.75 20.1529 9.75 20.3518C9.75 20.5507 9.67098 20.7415 9.53033 20.8821C9.38968 21.0228 9.19891 21.1018 9 21.1018V21.1318ZM16 17.1318C15.9015 17.1322 15.8038 17.113 15.7128 17.0752C15.6218 17.0375 15.5392 16.9819 15.47 16.9118C15.3295 16.7712 15.2507 16.5805 15.2507 16.3818C15.2507 16.183 15.3295 15.9924 15.47 15.8518L18.94 12.3818L15.47 8.91178C15.3963 8.84312 15.3372 8.76032 15.2962 8.66832C15.2552 8.57632 15.2332 8.47701 15.2314 8.3763C15.2296 8.2756 15.2482 8.17557 15.2859 8.08218C15.3236 7.98879 15.3797 7.90396 15.451 7.83274C15.5222 7.76152 15.607 7.70538 15.7004 7.66766C15.7938 7.62994 15.8938 7.61141 15.9945 7.61319C16.0952 7.61496 16.1945 7.63701 16.2865 7.678C16.3785 7.71899 16.4613 7.77809 16.53 7.85178L20.53 11.8518C20.6705 11.9924 20.7493 12.183 20.7493 12.3818C20.7493 12.5805 20.6705 12.7712 20.53 12.9118L16.53 16.9118C16.4608 16.9819 16.3782 17.0375 16.2872 17.0752C16.1962 17.113 16.0985 17.1322 16 17.1318Z" fill="#505050"/>
<path d="M20 13.1313H9C8.80109 13.1313 8.61032 13.0523 8.46967 12.9117C8.32902 12.771 8.25 12.5803 8.25 12.3813C8.25 12.1824 8.32902 11.9917 8.46967 11.851C8.61032 11.7104 8.80109 11.6313 9 11.6313H20C20.1989 11.6313 20.3897 11.7104 20.5303 11.851C20.671 11.9917 20.75 12.1824 20.75 12.3813C20.75 12.5803 20.671 12.771 20.5303 12.9117C20.3897 13.0523 20.1989 13.1313 20 13.1313Z" fill="#505050"/>
</svg>
