<svg width="25" height="25" viewBox="0 0 25 25" fill="none" xmlns="http://www.w3.org/2000/svg">
<path d="M9.3763 21.6147H6.2513C5.89009 21.6301 5.5294 21.5741 5.18986 21.4499C4.85032 21.3257 4.53859 21.1358 4.27253 20.891C4.00646 20.6462 3.79127 20.3514 3.63928 20.0233C3.48728 19.6953 3.40146 19.3405 3.38672 18.9793V6.02096C3.40146 5.65972 3.48728 5.30494 3.63928 4.9769C3.79127 4.64887 4.00646 4.35403 4.27253 4.10925C4.53859 3.86447 4.85032 3.67455 5.18986 3.55037C5.5294 3.42619 5.89009 3.37018 6.2513 3.38554H9.3763C9.5835 3.38554 9.78222 3.46785 9.92873 3.61436C10.0752 3.76088 10.1576 3.95959 10.1576 4.16679C10.1576 4.37399 10.0752 4.57271 9.92873 4.71922C9.78222 4.86573 9.5835 4.94804 9.3763 4.94804H6.2513C5.942 4.92115 5.63422 5.01434 5.39179 5.20828C5.14935 5.40223 4.99087 5.68205 4.94922 5.98971V18.9793C4.99087 19.287 5.14935 19.5668 5.39179 19.7607C5.63422 19.9547 5.942 20.0479 6.2513 20.021H9.3763C9.5835 20.021 9.78222 20.1033 9.92873 20.2498C10.0752 20.3963 10.1576 20.595 10.1576 20.8022C10.1576 21.0094 10.0752 21.2081 9.92873 21.3546C9.78222 21.5012 9.5835 21.5835 9.3763 21.5835V21.6147ZM16.668 17.448C16.5653 17.4485 16.4636 17.4285 16.3688 17.3892C16.274 17.3498 16.188 17.2919 16.1159 17.2189C15.9696 17.0724 15.8874 16.8738 15.8874 16.6668C15.8874 16.4598 15.9696 16.2612 16.1159 16.1147L19.7305 12.5001L16.1159 8.88554C16.0391 8.81402 15.9776 8.72777 15.9349 8.63194C15.8922 8.5361 15.8692 8.43265 15.8674 8.32775C15.8655 8.22285 15.8848 8.11866 15.9241 8.02138C15.9634 7.9241 16.0219 7.83573 16.0961 7.76154C16.1702 7.68736 16.2586 7.62887 16.3559 7.58958C16.4532 7.55029 16.5574 7.53099 16.6623 7.53284C16.7672 7.53469 16.8706 7.55765 16.9664 7.60035C17.0623 7.64305 17.1485 7.70462 17.2201 7.78137L21.3867 11.948C21.533 12.0945 21.6152 12.2931 21.6152 12.5001C21.6152 12.7072 21.533 12.9057 21.3867 13.0522L17.2201 17.2189C17.1479 17.2919 17.0619 17.3498 16.9671 17.3892C16.8723 17.4285 16.7706 17.4485 16.668 17.448Z" fill="white"/>
<path d="M20.8333 13.2812H9.375C9.1678 13.2812 8.96909 13.1989 8.82257 13.0524C8.67606 12.9059 8.59375 12.7072 8.59375 12.5C8.59375 12.2928 8.67606 12.0941 8.82257 11.9476C8.96909 11.8011 9.1678 11.7188 9.375 11.7188H20.8333C21.0405 11.7188 21.2392 11.8011 21.3858 11.9476C21.5323 12.0941 21.6146 12.2928 21.6146 12.5C21.6146 12.7072 21.5323 12.9059 21.3858 13.0524C21.2392 13.1989 21.0405 13.2812 20.8333 13.2812Z" fill="white"/>
</svg>
