<svg width="18" height="20" viewBox="0 0 18 20" fill="none" xmlns="http://www.w3.org/2000/svg">
<path d="M2.57552 14.8825H15.4089V8.49424C15.4089 4.93482 12.536 2.04915 8.99219 2.04915C5.44835 2.04915 2.57552 4.93482 2.57552 8.49424V14.8825ZM8.99219 0.21582C13.548 0.21582 17.2422 3.9219 17.2422 8.49424V16.7158H0.742188V8.49424C0.742188 3.9219 4.43635 0.21582 8.99219 0.21582ZM6.70052 17.6325H11.2839C11.2839 18.2403 11.0424 18.8232 10.6126 19.2529C10.1829 19.6827 9.59998 19.9242 8.99219 19.9242C8.3844 19.9242 7.80151 19.6827 7.37173 19.2529C6.94196 18.8232 6.70052 18.2403 6.70052 17.6325Z" fill="#505050"/>
</svg>
