<svg width="18" height="18" viewBox="0 0 18 18" fill="none" xmlns="http://www.w3.org/2000/svg">
<path d="M2.25 2.25L15.75 15.75" stroke="#9D9999" stroke-width="2" stroke-linecap="round" stroke-linejoin="round"/>
<path fill-rule="evenodd" clip-rule="evenodd" d="M4.04743 4.67253C3.71743 4.92003 3.41518 5.18103 3.13993 5.44653C2.2207 6.3393 1.45964 7.3816 0.889184 8.52903C0.81815 8.67575 0.78125 8.83665 0.78125 8.99966C0.78125 9.16267 0.81815 9.32357 0.889184 9.47028C1.45934 10.6179 2.22014 11.6605 3.13918 12.5535C4.45243 13.8173 6.38593 15 8.99743 15C10.6744 15 12.0724 14.5125 13.2049 13.8285L10.2469 10.8713C9.81412 11.1604 9.29446 11.2905 8.77647 11.2394C8.25849 11.1884 7.77423 10.9593 7.40618 10.5913C7.03814 10.2232 6.80908 9.73898 6.75802 9.221C6.70697 8.70301 6.83708 8.18335 7.12618 7.75053L4.04818 4.67178L4.04743 4.67253ZM15.4969 11.8785C16.1347 11.1487 16.6754 10.3395 17.1057 9.47103C17.1767 9.32432 17.2136 9.16342 17.2136 9.00041C17.2136 8.8374 17.1767 8.6765 17.1057 8.52978C16.5355 7.38214 15.7747 6.33958 14.8557 5.44653C13.5424 4.18278 11.6097 3.00003 8.99743 3.00003C8.28653 2.99797 7.57845 3.08951 6.89144 3.27228L15.4969 11.8785Z" fill="#9D9999"/>
</svg>
