<svg width="36" height="36" viewBox="0 0 36 36" fill="none" xmlns="http://www.w3.org/2000/svg">
<path d="M18 33C26.2843 33 33 26.2843 33 18C33 9.71573 26.2843 3 18 3C9.71573 3 3 9.71573 3 18C3 26.2843 9.71573 33 18 33Z" stroke="white" stroke-width="2" stroke-linecap="round" stroke-linejoin="round"/>
<path d="M18 11C14.5305 11 11.7 13.8591 11.7 17.3636C11.7 19.5545 12.807 21.5 14.4846 22.6482C11.2743 24.0391 9 27.2573 9 31H10.8C10.8 26.9727 14.013 23.7273 18 23.7273C21.987 23.7273 25.2 26.9727 25.2 31H27C27 27.2573 24.7257 24.04 21.5154 22.6473C22.3718 22.0637 23.0735 21.2768 23.559 20.3557C24.0445 19.4345 24.2989 18.4072 24.3 17.3636C24.3 13.8591 21.4695 11 18 11ZM18 12.8182C20.4957 12.8182 22.5 14.8427 22.5 17.3636C22.5 19.8845 20.4957 21.9091 18 21.9091C15.5043 21.9091 13.5 19.8845 13.5 17.3636C13.5 14.8427 15.5043 12.8182 18 12.8182Z" fill="white"/>
</svg>
