<svg width="20" height="20" viewBox="0 0 20 20" fill="none" xmlns="http://www.w3.org/2000/svg">
<path d="M16.7599 10.302L17.8334 11.2579C18.0316 11.4233 18.164 11.6543 18.2067 11.9089C18.2494 12.1635 18.1995 12.4251 18.0661 12.6461L16.7717 14.8572C16.6713 15.0265 16.5279 15.1662 16.3561 15.2622C16.1823 15.3583 15.9871 15.4094 15.7885 15.4106C15.6653 15.4114 15.5427 15.3929 15.4251 15.356L14.0512 14.9023C13.8105 15.0567 13.5603 15.1949 13.3007 15.3168L13.0121 16.7097C12.9587 16.966 12.816 17.1949 12.6095 17.3557C12.4004 17.5194 12.1412 17.6058 11.8757 17.6003H9.19548C8.92997 17.6058 8.67071 17.5194 8.4616 17.3557C8.25555 17.1947 8.11332 16.9658 8.06023 16.7097L7.77048 15.3168C7.51422 15.1932 7.26558 15.0544 7.02592 14.9012L5.64723 15.356C5.52967 15.3929 5.40708 15.4114 5.28385 15.4106C5.08561 15.4092 4.89088 15.3581 4.71742 15.2622C4.54575 15.1665 4.40238 15.0272 4.30179 14.8584L2.9611 12.6461C2.82172 12.4231 2.76847 12.1569 2.81131 11.8974C2.85416 11.6379 2.99017 11.4029 3.19385 11.2365L4.26617 9.8816V9.46122L3.19267 8.50528C2.99443 8.33986 2.86197 8.10892 2.81928 7.85428C2.77658 7.59964 2.82647 7.33813 2.95992 7.11709L4.3006 4.90597C4.40102 4.73671 4.54441 4.59701 4.71623 4.50103C4.88969 4.40505 5.08442 4.35402 5.28267 4.35259C5.40478 4.34489 5.52735 4.35611 5.64604 4.38584L6.99742 4.86084C7.23887 4.70647 7.48904 4.56832 7.74792 4.44641L8.03767 3.05347C8.09075 2.79741 8.23298 2.56849 8.43904 2.40747C8.64815 2.24377 8.9074 2.15735 9.17292 2.16284H11.8305C12.0961 2.15735 12.3553 2.24377 12.5644 2.40747C12.7722 2.57016 12.9147 2.79934 12.9658 3.05347L13.2555 4.44641C13.5128 4.56912 13.761 4.70766 14.0001 4.86203L15.38 4.40841C15.5331 4.35859 15.6949 4.3411 15.8552 4.35704C16.0154 4.37298 16.1707 4.42202 16.311 4.50103C16.4832 4.59841 16.6257 4.73853 16.7266 4.90478L18.0661 7.11709C18.2074 7.33823 18.2633 7.60322 18.2236 7.86259C18.1838 8.12196 18.051 8.358 17.85 8.52666L16.7599 9.45528V10.302Z" stroke="#505050" stroke-width="1.2"/>
<path d="M13.4835 9.88139C13.4835 10.6686 13.1708 11.4236 12.6141 11.9803C12.0574 12.537 11.3024 12.8497 10.5152 12.8497C9.72794 12.8497 8.97294 12.537 8.41627 11.9803C7.85961 11.4236 7.54688 10.6686 7.54688 9.88139C7.54688 9.09415 7.85961 8.33915 8.41627 7.78248C8.97294 7.22582 9.72794 6.91309 10.5152 6.91309C11.3024 6.91309 12.0574 7.22582 12.6141 7.78248C13.1708 8.33915 13.4835 9.09415 13.4835 9.88139Z" stroke="#505050" stroke-width="1.2"/>
</svg>
