<svg width="20" height="21" viewBox="0 0 20 21" fill="none" xmlns="http://www.w3.org/2000/svg">
<path d="M9.9931 2.04736C7.48643 2.04736 5.86143 3.72986 3.93977 4.3432C3.1581 4.5932 2.76727 4.71736 2.60893 4.8932C2.4506 5.0682 2.40477 5.3257 2.31227 5.83903C1.3206 11.3357 3.48727 16.4174 8.65393 18.3957C9.2081 18.6082 9.4856 18.714 9.9956 18.714C10.5056 18.714 10.7839 18.6074 11.3389 18.3949C16.5048 16.4174 18.6689 11.3357 17.6773 5.83903C17.5848 5.3257 17.5381 5.0682 17.3798 4.89236C17.2214 4.71653 16.8314 4.59236 16.0498 4.3432C14.1273 3.72986 12.4998 2.04736 9.9931 2.04736Z" stroke="#505050" stroke-width="1.2" stroke-linecap="round" stroke-linejoin="round"/>
<path d="M8.52073 8.6789C8.52073 8.62891 8.52739 8.34062 8.52906 7.97901C8.52906 7.64739 8.50073 7.3291 8.65904 7.03748C9.25062 5.85932 10.9504 5.97931 11.3703 7.17913C11.4428 7.3766 11.4478 7.68905 11.4453 7.97901C11.4428 8.34812 11.4503 8.6789 11.4503 8.6789M8.59322 9.02968C7.69335 9.02968 7.24342 9.67958 7.14344 10.0795C7.04345 10.4795 7.04345 11.9292 7.10344 12.5292C7.30341 13.279 7.80334 13.589 8.29326 13.689C8.7432 13.729 10.6429 13.714 11.1928 13.714C11.9927 13.729 12.5926 13.429 12.8426 12.5292C12.8926 12.2292 12.9426 10.5794 12.8176 10.0795C12.5526 9.27964 11.8927 9.02968 11.3928 9.02968H8.59322Z" stroke="#505050" stroke-width="1.2" stroke-linecap="round" stroke-linejoin="round"/>
</svg>
