<svg width="85" height="22" viewBox="0 0 85 22" fill="none" xmlns="http://www.w3.org/2000/svg">
<path d="M68.3422 19.2502L69.8318 12.8106L64.8359 8.47933L71.4359 7.90641L74.0026 1.8335L76.5693 7.90641L83.1693 8.47933L68.3422 19.2502Z" fill="#FF6633"/>
<path d="M79.0849 12.8335L80.5745 19.2731L74.9141 15.8585L79.0849 12.8335Z" fill="#FF6633"/>
<path d="M47.3422 19.2502L48.8318 12.8106L43.8359 8.47933L50.4359 7.90641L53.0026 1.8335L55.5693 7.90641L62.1693 8.47933L47.3422 19.2502Z" fill="#FF6633"/>
<path d="M58.0849 12.8335L59.5745 19.2731L53.9141 15.8585L58.0849 12.8335Z" fill="#FF6633"/>
<path d="M26.3422 19.2502L27.8318 12.8106L22.8359 8.47933L29.4359 7.90641L32.0026 1.8335L34.5693 7.90641L41.1693 8.47933L26.3422 19.2502Z" fill="#FF6633"/>
<path d="M37.0849 12.8335L38.5745 19.2731L32.9141 15.8585L37.0849 12.8335Z" fill="#FF6633"/>
<path d="M5.34219 19.2502L6.83177 12.8106L1.83594 8.47933L8.43594 7.90641L11.0026 1.8335L13.5693 7.90641L20.1693 8.47933L5.34219 19.2502Z" fill="#FF6633"/>
<path d="M16.0849 12.8335L17.5745 19.2731L11.9141 15.8585L16.0849 12.8335Z" fill="#FF6633"/>
</svg>
