<svg width="35" height="35" viewBox="0 0 35 35" fill="none" xmlns="http://www.w3.org/2000/svg">
<path fill-rule="evenodd" clip-rule="evenodd" d="M12 0C5.37258 0 0 5.37258 0 12V23C0 29.6274 5.37258 35 12 35H23C29.6274 35 35 29.6274 35 23V12C35 5.37258 29.6274 0 23 0H12ZM25.4578 20.3887C24.5272 19.4975 23.2885 19.0001 22 19H14L13.783 19.005C12.4958 19.0609 11.2798 19.6116 10.3887 20.5422C9.49754 21.4728 9.00007 22.7115 9 24V25L9.005 25.15C9.04284 25.6532 9.26947 26.1234 9.63945 26.4665C10.0094 26.8096 10.4954 27.0002 11 27H25L25.15 26.995C25.6532 26.9572 26.1234 26.7305 26.4665 26.3605C26.8096 25.9906 27.0002 25.5046 27 25V24L26.995 23.783C26.9391 22.4958 26.3884 21.2798 25.4578 20.3887ZM21.5355 8.46447C20.5979 7.52678 19.3261 7 18 7C16.6739 7 15.4021 7.52678 14.4645 8.46447C13.5268 9.40215 13 10.6739 13 12C13 13.3261 13.5268 14.5979 14.4645 15.5355C15.4021 16.4732 16.6739 17 18 17C19.3261 17 20.5979 16.4732 21.5355 15.5355C22.4732 14.5979 23 13.3261 23 12C23 10.6739 22.4732 9.40215 21.5355 8.46447Z" fill="#A9A9B2"/>
</svg>
