<svg width="26" height="26" viewBox="0 0 26 26" fill="none" xmlns="http://www.w3.org/2000/svg">
<path d="M22.75 14.0832V22.1367C22.75 22.355 22.706 22.5709 22.6207 22.7718C22.5354 22.9727 22.4106 23.1543 22.2535 23.3059C22.0965 23.4574 21.9106 23.5758 21.7068 23.6539C21.5031 23.7321 21.2857 23.7684 21.0676 23.7606L20.9235 23.7487L13 22.7586V14.0832H22.75ZM10.8333 14.0832V22.4877L5.148 21.7771C4.62389 21.7116 4.14175 21.4569 3.79223 21.0609C3.44271 20.6649 3.24989 20.1548 3.25 19.6266V14.0832H10.8333ZM20.9235 2.25106C21.14 2.22401 21.3598 2.24085 21.5697 2.30057C21.7796 2.36029 21.9753 2.46167 22.1451 2.59866C22.315 2.73566 22.4555 2.90546 22.5583 3.09794C22.6611 3.29041 22.7241 3.50163 22.7435 3.71898L22.75 3.86306V11.9166H13V3.24123L20.9235 2.25106ZM10.8333 3.51206V11.9166H3.25V6.37314C3.24989 5.84496 3.44271 5.33492 3.79223 4.93891C4.14175 4.54291 4.62389 4.28822 5.148 4.22273L10.8333 3.51206Z" fill="white"/>
</svg>
